{
  "accessors": [
    {
      "bufferView": 2,
      "componentType": 5126,
      "count": 2557,
      "max": [
        5.89878511428833,
        6.410868167877197,
        22.269329071044922
      ],
      "min": [
        -39.10933303833008,
        -50.474708557128906,
        -22.269325256347656
      ],
      "type": "VEC3"
    },
    {
      "bufferView": 2,
      "byteOffset": 30684,
      "componentType": 5126,
      "count": 2557,
      "max": [
        1.0,
        1.0,
        1.0
      ],
      "min": [
        -1.0,
        -1.0,
        -1.0
      ],
      "type": "VEC3"
    },
    {
      "bufferView": 3,
      "componentType": 5126,
      "count": 2557,
      "max": [
        1.0,
        0.9999951124191284,
        1.0,
        1.0
      ],
      "min": [
        -1.0,
        -1.0,
        -1.0,
        -1.0
      ],
      "type": "VEC4"
    },
    {
      "bufferView": 1,
      "componentType": 5126,
      "count": 2557,
      "max": [
        0.9976000189781189,
        0.9938259720802307
      ],
      "min": [
        0.012583999894559383,
        0.01421900000423193
      ],
      "type": "VEC2"
    },
    {
      "bufferView": 0,
      "componentType": 5125,
      "count": 10080,
      "type": "SCALAR"
    },
    {
      "bufferView": 2,
      "byteOffset": 61368,
      "componentType": 5126,
      "count": 306,
      "max": [
        50.03309631347656,
        247.7799072265625,
        255.210205078125
      ],
      "min": [
        -73.85002136230469,
        123.89678955078125,
        -0.3104250133037567
      ],
      "type": "VEC3"
    },
    {
      "bufferView": 2,
      "byteOffset": 65040,
      "componentType": 5126,
      "count": 306,
      "max": [
        1.0,
        1.0,
        1.0
      ],
      "min": [
        -1.0,
        -1.0,
        -1.0
      ],
      "type": "VEC3"
    },
    {
      "bufferView": 3,
      "byteOffset": 40912,
      "componentType": 5126,
      "count": 306,
      "max": [
        1.0,
        1.0,
        0.6604117751121521,
        1.0
      ],
      "min": [
        -1.0,
        -1.0,
        -0.9982857704162598,
        1.0
      ],
      "type": "VEC4"
    },
    {
      "bufferView": 1,
      "byteOffset": 20456,
      "componentType": 5126,
      "count": 306,
      "max": [
        0.7734299898147583,
        0.9939200282096863
      ],
      "min": [
        0.057787999510765076,
        0.008735000155866146
      ],
      "type": "VEC2"
    },
    {
      "bufferView": 0,
      "byteOffset": 40320,
      "componentType": 5125,
      "count": 1386,
      "type": "SCALAR"
    },
    {
      "bufferView": 2,
      "byteOffset": 68712,
      "componentType": 5126,
      "count": 530,
      "max": [
        20.390586853027344,
        20.13335418701172,
        30.74250030517578
      ],
      "min": [
        -19.664142608642578,
        -19.89525604248047,
        11.481767654418945
      ],
      "type": "VEC3"
    },
    {
      "bufferView": 2,
      "byteOffset": 75072,
      "componentType": 5126,
      "count": 530,
      "max": [
        1.0,
        1.0,
        1.0
      ],
      "min": [
        -1.0,
        -0.9985830187797546,
        -1.0
      ],
      "type": "VEC3"
    },
    {
      "bufferView": 3,
      "byteOffset": 45808,
      "componentType": 5126,
      "count": 530,
      "max": [
        0.9510566592216492,
        1.0,
        1.0,
        1.0
      ],
      "min": [
        -1.0,
        -1.0,
        -1.0,
        1.0
      ],
      "type": "VEC4"
    },
    {
      "bufferView": 1,
      "byteOffset": 22904,
      "componentType": 5126,
      "count": 530,
      "max": [
        0.9639250040054321,
        0.9746879935264587
      ],
      "min": [
        0.09299600124359131,
        0.019710000604391098
      ],
      "type": "VEC2"
    },
    {
      "bufferView": 0,
      "byteOffset": 45864,
      "componentType": 5125,
      "count": 1494,
      "type": "SCALAR"
    },
    {
      "bufferView": 2,
      "byteOffset": 81432,
      "componentType": 5126,
      "count": 1466,
      "max": [
        60.42247009277344,
        124.36444091796875,
        22.432758331298828
      ],
      "min": [
        -36.193443298339844,
        -124.99465942382813,
        -22.432762145996094
      ],
      "type": "VEC3"
    },
    {
      "bufferView": 2,
      "byteOffset": 99024,
      "componentType": 5126,
      "count": 1466,
      "max": [
        1.0,
        1.0,
        1.0
      ],
      "min": [
        -1.0,
        -1.0,
        -1.0
      ],
      "type": "VEC3"
    },
    {
      "bufferView": 3,
      "byteOffset": 54288,
      "componentType": 5126,
      "count": 1466,
      "max": [
        1.0,
        1.0,
        1.0,
        1.0
      ],
      "min": [
        -1.0,
        -1.0,
        -1.0,
        1.0
      ],
      "type": "VEC4"
    },
    {
      "bufferView": 1,
      "byteOffset": 27144,
      "componentType": 5126,
      "count": 1466,
      "max": [
        0.9976450204849243,
        0.9976270198822021
      ],
      "min": [
        0.005865999963134527,
        0.0036490000784397125
      ],
      "type": "VEC2"
    },
    {
      "bufferView": 0,
      "byteOffset": 51840,
      "componentType": 5125,
      "count": 5112,
      "type": "SCALAR"
    },
    {
      "bufferView": 2,
      "byteOffset": 116616,
      "componentType": 5126,
      "count": 530,
      "max": [
        20.390579223632813,
        20.133346557617188,
        30.74249839782715
      ],
      "min": [
        -19.664146423339844,
        -19.895259857177734,
        11.481767654418945
      ],
      "type": "VEC3"
    },
    {
      "bufferView": 2,
      "byteOffset": 122976,
      "componentType": 5126,
      "count": 530,
      "max": [
        1.0,
        1.0,
        1.0
      ],
      "min": [
        -1.0,
        -1.0,
        -1.0
      ],
      "type": "VEC3"
    },
    {
      "bufferView": 3,
      "byteOffset": 77744,
      "componentType": 5126,
      "count": 530,
      "max": [
        0.9510566592216492,
        1.0,
        1.0,
        1.0
      ],
      "min": [
        -1.0,
        -1.0,
        -1.0,
        1.0
      ],
      "type": "VEC4"
    },
    {
      "bufferView": 1,
      "byteOffset": 38872,
      "componentType": 5126,
      "count": 530,
      "max": [
        0.9633020162582397,
        0.9582639932632446
      ],
      "min": [
        0.0781719982624054,
        0.1568720042705536
      ],
      "type": "VEC2"
    },
    {
      "bufferView": 0,
      "byteOffset": 72288,
      "componentType": 5125,
      "count": 1494,
      "type": "SCALAR"
    },
    {
      "bufferView": 2,
      "byteOffset": 129336,
      "componentType": 5126,
      "count": 684,
      "max": [
        91.78822326660156,
        85.8003921508789,
        33.87203598022461
      ],
      "min": [
        -10.775117874145508,
        -31.217586517333984,
        -39.35481262207031
      ],
      "type": "VEC3"
    },
    {
      "bufferView": 2,
      "byteOffset": 137544,
      "componentType": 5126,
      "count": 684,
      "max": [
        1.0,
        1.0,
        1.0
      ],
      "min": [
        -1.0,
        -1.0,
        -1.0
      ],
      "type": "VEC3"
    },
    {
      "bufferView": 3,
      "byteOffset": 86224,
      "componentType": 5126,
      "count": 684,
      "max": [
        1.0,
        1.0,
        1.0,
        -1.0
      ],
      "min": [
        -1.0,
        -1.0,
        -1.0,
        -1.0
      ],
      "type": "VEC4"
    },
    {
      "bufferView": 1,
      "byteOffset": 43112,
      "componentType": 5126,
      "count": 684,
      "max": [
        0.9945840239524841,
        0.9863010048866272
      ],
      "min": [
        0.1611430048942566,
        0.029179999604821205
      ],
      "type": "VEC2"
    },
    {
      "bufferView": 0,
      "byteOffset": 78264,
      "componentType": 5125,
      "count": 2952,
      "type": "SCALAR"
    },
    {
      "bufferView": 2,
      "byteOffset": 145752,
      "componentType": 5126,
      "count": 274,
      "max": [
        10.83301067352295,
        10.302804946899414,
        52.52738571166992
      ],
      "min": [
        -10.833009719848633,
        -10.302803039550781,
        -13.357170104980469
      ],
      "type": "VEC3"
    },
    {
      "bufferView": 2,
      "byteOffset": 149040,
      "componentType": 5126,
      "count": 274,
      "max": [
        1.0,
        0.9723621010780334,
        1.0
      ],
      "min": [
        -1.0,
        -0.9580553770065308,
        -1.0
      ],
      "type": "VEC3"
    },
    {
      "bufferView": 3,
      "byteOffset": 97168,
      "componentType": 5126,
      "count": 274,
      "max": [
        0.9931048154830933,
        1.0,
        1.0,
        1.0
      ],
      "min": [
        -0.9723621010780334,
        -1.0,
        -1.0,
        1.0
      ],
      "type": "VEC4"
    },
    {
      "bufferView": 1,
      "byteOffset": 48584,
      "componentType": 5126,
      "count": 274,
      "max": [
        0.9953830242156982,
        0.9963809847831726
      ],
      "min": [
        0.15918099880218506,
        0.015970999374985695
      ],
      "type": "VEC2"
    },
    {
      "bufferView": 0,
      "byteOffset": 90072,
      "componentType": 5125,
      "count": 780,
      "type": "SCALAR"
    },
    {
      "bufferView": 2,
      "byteOffset": 152328,
      "componentType": 5126,
      "count": 859,
      "max": [
        106.94348907470703,
        32.469356536865234,
        28.526382446289063
      ],
      "min": [
        -37.92249298095703,
        -42.22341537475586,
        -102.15480041503906
      ],
      "type": "VEC3"
    },
    {
      "bufferView": 2,
      "byteOffset": 162636,
      "componentType": 5126,
      "count": 859,
      "max": [
        1.0,
        0.9993206262588501,
        1.0
      ],
      "min": [
        -1.0,
        -0.9995807409286499,
        -1.0
      ],
      "type": "VEC3"
    },
    {
      "bufferView": 3,
      "byteOffset": 101552,
      "componentType": 5126,
      "count": 859,
      "max": [
        1.0,
        1.0,
        1.0,
        1.0
      ],
      "min": [
        -1.0,
        -1.0,
        -1.0,
        1.0
      ],
      "type": "VEC4"
    },
    {
      "bufferView": 1,
      "byteOffset": 50776,
      "componentType": 5126,
      "count": 859,
      "max": [
        0.9948740005493164,
        0.9969469904899597
      ],
      "min": [
        0.00786800030618906,
        0.007903000339865685
      ],
      "type": "VEC2"
    },
    {
      "bufferView": 0,
      "byteOffset": 93192,
      "componentType": 5125,
      "count": 2586,
      "type": "SCALAR"
    }
  ],
  "asset": {
    "extras": {
      "author": "Lulaa (https://sketchfab.com/Lulaa)",
      "license": "CC-BY-4.0 (http://creativecommons.org/licenses/by/4.0/)",
      "source": "https://sketchfab.com/3d-models/old-boiler-376cab2e7b9c4434b047e5d2b7a77116",
      "title": "old boiler"
    },
    "generator": "Sketchfab-10.41.0",
    "version": "2.0"
  },
  "bufferViews": [
    {
      "buffer": 0,
      "byteLength": 103536,
      "name": "floatBufferViews",
      "target": 34963
    },
    {
      "buffer": 0,
      "byteLength": 57648,
      "byteOffset": 103536,
      "byteStride": 8,
      "name": "floatBufferViews",
      "target": 34962
    },
    {
      "buffer": 0,
      "byteLength": 172944,
      "byteOffset": 161184,
      "byteStride": 12,
      "name": "floatBufferViews",
      "target": 34962
    },
    {
      "buffer": 0,
      "byteLength": 115296,
      "byteOffset": 334128,
      "byteStride": 16,
      "name": "floatBufferViews",
      "target": 34962
    }
  ],
  "buffers": [
    {
      "byteLength": 449424,
      "uri": "scene.bin"
    }
  ],
  "images": [
    {
      "uri": "textures/Material_baseColor.jpeg"
    },
    {
      "uri": "textures/Material_metallicRoughness.png"
    },
    {
      "uri": "textures/Material_normal.png"
    }
  ],
  "materials": [
    {
      "doubleSided": true,
      "name": "Material",
      "normalTexture": {
        "index": 2
      },
      "occlusionTexture": {
        "index": 1
      },
      "pbrMetallicRoughness": {
        "baseColorTexture": {
          "index": 0
        },
        "metallicRoughnessTexture": {
          "index": 1
        }
      }
    }
  ],
  "meshes": [
    {
      "name": "defaultMaterial",
      "primitives": [
        {
          "attributes": {
            "NORMAL": 1,
            "POSITION": 0,
            "TANGENT": 2,
            "TEXCOORD_0": 3
          },
          "indices": 4,
          "material": 0,
          "mode": 4
        }
      ]
    },
    {
      "name": "defaultMaterial",
      "primitives": [
        {
          "attributes": {
            "NORMAL": 6,
            "POSITION": 5,
            "TANGENT": 7,
            "TEXCOORD_0": 8
          },
          "indices": 9,
          "material": 0,
          "mode": 4
        }
      ]
    },
    {
      "name": "defaultMaterial",
      "primitives": [
        {
          "attributes": {
            "NORMAL": 11,
            "POSITION": 10,
            "TANGENT": 12,
            "TEXCOORD_0": 13
          },
          "indices": 14,
          "material": 0,
          "mode": 4
        }
      ]
    },
    {
      "name": "defaultMaterial",
      "primitives": [
        {
          "attributes": {
            "NORMAL": 16,
            "POSITION": 15,
            "TANGENT": 17,
            "TEXCOORD_0": 18
          },
          "indices": 19,
          "material": 0,
          "mode": 4
        }
      ]
    },
    {
      "name": "defaultMaterial",
      "primitives": [
        {
          "attributes": {
            "NORMAL": 21,
            "POSITION": 20,
            "TANGENT": 22,
            "TEXCOORD_0": 23
          },
          "indices": 24,
          "material": 0,
          "mode": 4
        }
      ]
    },
    {
      "name": "defaultMaterial",
      "primitives": [
        {
          "attributes": {
            "NORMAL": 26,
            "POSITION": 25,
            "TANGENT": 27,
            "TEXCOORD_0": 28
          },
          "indices": 29,
          "material": 0,
          "mode": 4
        }
      ]
    },
    {
      "name": "defaultMaterial",
      "primitives": [
        {
          "attributes": {
            "NORMAL": 31,
            "POSITION": 30,
            "TANGENT": 32,
            "TEXCOORD_0": 33
          },
          "indices": 34,
          "material": 0,
          "mode": 4
        }
      ]
    },
    {
      "name": "defaultMaterial",
      "primitives": [
        {
          "attributes": {
            "NORMAL": 36,
            "POSITION": 35,
            "TANGENT": 37,
            "TEXCOORD_0": 38
          },
          "indices": 39,
          "material": 0,
          "mode": 4
        }
      ]
    }
  ],
  "nodes": [
    {
      "children": [
        1
      ],
      "matrix": [
        1.0,
        0.0,
        0.0,
        0.0,
        0.0,
        3.828568672208042e-16,
        -1.0,
        0.0,
        0.0,
        1.0,
        3.828568672208042e-16,
        0.0,
        0.0,
        -3.7280349829416076e-07,
        -2.3138836979796914e-07,
        1.0
      ],
      "name": "Sketchfab_model"
    },
    {
      "children": [
        2,
        4,
        6,
        8,
        10,
        12,
        14,
        16
      ],
      "matrix": [
        1.0,
        0.0,
        0.0,
        0.0,
        0.0,
        -4.371139006309477e-08,
        0.999999999999999,
        0.0,
        0.0,
        -0.999999999999999,
        -4.371139006309477e-08,
        0.0,
        0.0,
        0.0,
        0.0,
        1.0
      ],
      "name": "Collada visual scene group"
    },
    {
      "children": [
        3
      ],
      "matrix": [
        0.0,
        0.0,
        1.764325,
        0.0,
        0.0,
        1.764325,
        0.0,
        0.0,
        -1.764325,
        0.0,
        0.0,
        0.0,
        0.197613,
        156.350754,
        104.909126,
        1.0
      ],
      "name": "pipe_middle_low"
    },
    {
      "mesh": 0,
      "name": "defaultMaterial"
    },
    {
      "children": [
        5
      ],
      "matrix": [
        1.0,
        0.0,
        0.0,
        0.0,
        0.0,
        0.0,
        -1.0,
        0.0,
        0.0,
        1.0,
        0.0,
        0.0,
        11.908474,
        0.0,
        185.838333,
        1.0
      ],
      "name": "boiler_low"
    },
    {
      "mesh": 1,
      "name": "defaultMaterial"
    },
    {
      "children": [
        7
      ],
      "matrix": [
        1.0,
        0.0,
        0.0,
        0.0,
        0.0,
        1.0,
        0.0,
        0.0,
        0.0,
        0.0,
        1.0,
        0.0,
        86.260147,
        105.514664,
        21.999233,
        1.0
      ],
      "name": "wheel02_low"
    },
    {
      "mesh": 2,
      "name": "defaultMaterial"
    },
    {
      "children": [
        9
      ],
      "matrix": [
        1.0,
        0.0,
        0.0,
        0.0,
        0.0,
        1.0,
        0.0,
        0.0,
        0.0,
        0.0,
        1.0,
        0.0,
        -118.988907,
        139.755234,
        6e-06,
        1.0
      ],
      "name": "pipe_big_low"
    },
    {
      "mesh": 3,
      "name": "defaultMaterial"
    },
    {
      "children": [
        11
      ],
      "matrix": [
        0.79476,
        0.0,
        0.606924,
        0.0,
        0.0,
        1.0,
        0.0,
        0.0,
        -0.606924,
        0.0,
        0.79476,
        0.0,
        -25.300116,
        214.823318,
        31.452208,
        1.0
      ],
      "name": "wheel01_low"
    },
    {
      "mesh": 4,
      "name": "defaultMaterial"
    },
    {
      "children": [
        13
      ],
      "matrix": [
        1.0,
        0.0,
        0.0,
        0.0,
        0.0,
        0.0,
        -1.0,
        0.0,
        0.0,
        1.0,
        0.0,
        0.0,
        4.570019,
        181.27832,
        74.987785,
        1.0
      ],
      "name": "pipe_connector_low"
    },
    {
      "mesh": 5,
      "name": "defaultMaterial"
    },
    {
      "children": [
        15
      ],
      "matrix": [
        0.0,
        -1.0,
        0.0,
        0.0,
        0.0,
        0.0,
        -1.0,
        0.0,
        1.0,
        0.0,
        0.0,
        0.0,
        -102.134857,
        152.36142,
        -0.131804,
        1.0
      ],
      "name": "pipe_short_low"
    },
    {
      "mesh": 6,
      "name": "defaultMaterial"
    },
    {
      "children": [
        17
      ],
      "matrix": [
        0.0,
        -1.0,
        0.0,
        0.0,
        0.0,
        0.0,
        -1.0,
        0.0,
        1.0,
        0.0,
        0.0,
        0.0,
        143.083588,
        106.943489,
        -5.549957,
        1.0
      ],
      "name": "sidepart_low"
    },
    {
      "mesh": 7,
      "name": "defaultMaterial"
    }
  ],
  "samplers": [
    {
      "magFilter": 9729,
      "minFilter": 9987,
      "wrapS": 10497,
      "wrapT": 10497
    }
  ],
  "scene": 0,
  "scenes": [
    {
      "name": "Sketchfab_Scene",
      "nodes": [
        0
      ]
    }
  ],
  "textures": [
    {
      "sampler": 0,
      "source": 0
    },
    {
      "sampler": 0,
      "source": 1
    },
    {
      "sampler": 0,
      "source": 2
    }
  ]
}
